<svg width="25" height="24" viewBox="0 0 25 24" fill="none" xmlns="http://www.w3.org/2000/svg">
<g clip-path="url(#clip0_44_136)">
<path d="M8.164 22.4999C17.221 22.4999 22.1755 14.9954 22.1755 8.49894C22.1755 8.28894 22.1755 8.07594 22.1665 7.86594C23.1311 7.16767 23.9636 6.30317 24.625 5.31294C23.724 5.71022 22.7691 5.97205 21.7915 6.08994C22.8213 5.4744 23.5926 4.50589 23.962 3.36444C22.9945 3.93763 21.9355 4.34 20.8315 4.55394C20.0893 3.76348 19.1071 3.23982 18.0371 3.06408C16.9672 2.88834 15.8691 3.07032 14.913 3.58185C13.9569 4.09337 13.1962 4.90588 12.7487 5.89353C12.3011 6.88118 12.1918 7.98884 12.4375 9.04494C10.4796 8.94677 8.56422 8.43814 6.81556 7.55206C5.0669 6.66597 3.52403 5.42221 2.287 3.90144C1.65901 4.98607 1.46736 6.26904 1.75097 7.48984C2.03458 8.71064 2.77218 9.77774 3.814 10.4744C3.03331 10.4479 2.26978 10.2383 1.585 9.86244V9.92994C1.58635 11.0662 1.97996 12.1671 2.69931 13.0466C3.41866 13.9261 4.41962 14.5303 5.533 14.7569C5.11039 14.8734 4.67384 14.9314 4.2355 14.9294C3.92648 14.9304 3.61807 14.9017 3.3145 14.8439C3.62918 15.822 4.24191 16.6772 5.06687 17.2897C5.89183 17.9021 6.8877 18.2412 7.915 18.2594C6.16983 19.6301 4.0141 20.3736 1.795 20.3699C1.40398 20.3716 1.01323 20.349 0.625 20.3024C2.87727 21.7383 5.49295 22.5008 8.164 22.4999Z" fill="white"/>
</g>
<defs>
<clipPath id="clip0_44_136">
<rect width="24" height="24" fill="white" transform="translate(0.625)"/>
</clipPath>
</defs>
</svg>
