<svg width="33" height="34" viewBox="0 0 33 34" fill="none" xmlns="http://www.w3.org/2000/svg">
<path d="M26.0833 5.66663H7.41666C6.35579 5.66663 5.33837 6.11439 4.58823 6.91142C3.83808 7.70845 3.41666 8.78946 3.41666 9.91663V24.0833C3.41666 25.2105 3.83808 26.2915 4.58823 27.0885C5.33837 27.8855 6.35579 28.3333 7.41666 28.3333H26.0833C27.1442 28.3333 28.1616 27.8855 28.9117 27.0885C29.6619 26.2915 30.0833 25.2105 30.0833 24.0833V9.91663C30.0833 8.78946 29.6619 7.70845 28.9117 6.91142C28.1616 6.11439 27.1442 5.66663 26.0833 5.66663ZM25.19 8.49996L16.75 15.2291L8.30999 8.49996H25.19ZM26.0833 25.5H7.41666C7.06303 25.5 6.7239 25.3507 6.47385 25.085C6.2238 24.8194 6.08332 24.459 6.08332 24.0833V10.2708L15.95 18.1333C16.1808 18.3172 16.4615 18.4166 16.75 18.4166C17.0385 18.4166 17.3192 18.3172 17.55 18.1333L27.4167 10.2708V24.0833C27.4167 24.459 27.2762 24.8194 27.0261 25.085C26.7761 25.3507 26.4369 25.5 26.0833 25.5Z" fill="white"/>
</svg>
