<svg width="50" height="51" viewBox="0 0 50 51" fill="none" xmlns="http://www.w3.org/2000/svg">
<path d="M34.375 14.9531C33.9518 14.9531 33.5856 14.7985 33.2764 14.4893C32.9671 14.18 32.8125 13.8138 32.8125 13.3906C32.8125 12.5605 32.9671 11.763 33.2764 10.998C33.5856 10.2331 34.0413 9.55762 34.6436 8.97168L36.5723 7.01855C37.1908 6.40007 37.5 5.65951 37.5 4.79688C37.5 4.3737 37.6546 4.00749 37.9639 3.69824C38.2731 3.389 38.6393 3.23438 39.0625 3.23438C39.4857 3.23438 39.8519 3.389 40.1611 3.69824C40.4704 4.00749 40.625 4.3737 40.625 4.79688C40.625 5.62695 40.4704 6.42448 40.1611 7.18945C39.8519 7.95443 39.3962 8.62988 38.7939 9.21582L36.8652 11.1689C36.2467 11.7874 35.9375 12.528 35.9375 13.3906C35.9375 13.8138 35.7829 14.18 35.4736 14.4893C35.1644 14.7985 34.7982 14.9531 34.375 14.9531ZM25 14.9531C24.5768 14.9531 24.2106 14.7985 23.9014 14.4893C23.5921 14.18 23.4375 13.8138 23.4375 13.3906C23.4375 12.5605 23.5921 11.763 23.9014 10.998C24.2106 10.2331 24.6663 9.55762 25.2686 8.97168L27.1973 7.01855C27.8158 6.40007 28.125 5.65951 28.125 4.79688C28.125 4.3737 28.2796 4.00749 28.5889 3.69824C28.8981 3.389 29.2643 3.23438 29.6875 3.23438C30.1107 3.23438 30.4769 3.389 30.7861 3.69824C31.0954 4.00749 31.25 4.3737 31.25 4.79688C31.25 5.62695 31.0954 6.42448 30.7861 7.18945C30.4769 7.95443 30.0212 8.62988 29.4189 9.21582L27.4902 11.1689C26.8717 11.7874 26.5625 12.528 26.5625 13.3906C26.5625 13.8138 26.4079 14.18 26.0986 14.4893C25.7894 14.7985 25.4232 14.9531 25 14.9531ZM45.3125 19.25C45.9635 19.25 46.5739 19.3721 47.1436 19.6162C47.7132 19.8604 48.2096 20.194 48.6328 20.6172C49.056 21.0404 49.3896 21.5368 49.6338 22.1064C49.8779 22.6761 50 23.2865 50 23.9375V33.3125C50 33.9635 49.8779 34.5739 49.6338 35.1436C49.3896 35.7132 49.056 36.2096 48.6328 36.6328C48.2096 37.056 47.7132 37.3896 47.1436 37.6338C46.5739 37.8779 45.9635 38 45.3125 38H43.9209C43.8883 38.1139 43.8639 38.2197 43.8477 38.3174C43.8314 38.415 43.7988 38.5127 43.75 38.6104V39.5625C43.75 40.6367 43.5465 41.6458 43.1396 42.5898C42.7327 43.5339 42.1712 44.3639 41.4551 45.0801C40.7389 45.7962 39.9089 46.3577 38.9648 46.7646C38.0208 47.1715 37.0117 47.375 35.9375 47.375H26.5625C25.293 47.375 24.1211 47.0902 23.0469 46.5205C21.9727 45.9508 21.0775 45.194 20.3613 44.25H8.1543C7.08008 44.25 6.07096 44.0465 5.12695 43.6396C4.18294 43.2327 3.35286 42.6794 2.63672 41.9795C1.92057 41.2796 1.35905 40.4495 0.952148 39.4893C0.545247 38.529 0.341797 37.5117 0.341797 36.4375V34.875H6.5918C6.5918 33.5892 6.83594 32.3766 7.32422 31.2373C7.8125 30.098 8.48796 29.1051 9.35059 28.2588C10.2132 27.4124 11.2061 26.737 12.3291 26.2324C13.4521 25.7279 14.6647 25.4837 15.9668 25.5C16.4551 25.5 16.9271 25.5407 17.3828 25.6221C17.8385 25.7035 18.2943 25.8174 18.75 25.9639V16.125H43.75V19.25H45.3125ZM15.9668 28.625C15.1042 28.625 14.2985 28.7878 13.5498 29.1133C12.8011 29.4388 12.1338 29.8864 11.5479 30.4561C10.9619 31.0257 10.5143 31.6849 10.2051 32.4336C9.89583 33.1823 9.73307 33.9961 9.7168 34.875H18.75V29.3086C18.3268 29.097 17.8874 28.9342 17.4316 28.8203C16.9759 28.7064 16.4876 28.6413 15.9668 28.625ZM8.1543 41.125H18.9209C18.807 40.653 18.75 40.1322 18.75 39.5625V38H3.73535C3.89811 38.4557 4.12598 38.8708 4.41895 39.2451C4.71191 39.6195 5.04557 39.9531 5.41992 40.2461C5.79427 40.5391 6.21745 40.7507 6.68945 40.8809C7.16146 41.0111 7.64974 41.0924 8.1543 41.125ZM19.458 42.7607V42.7852L19.4824 42.834V42.8096L19.458 42.7607ZM40.625 39.5625V19.25H21.875V39.5625C21.875 40.2135 21.9971 40.8239 22.2412 41.3936C22.4854 41.9632 22.819 42.4596 23.2422 42.8828C23.6654 43.306 24.1618 43.6396 24.7314 43.8838C25.3011 44.1279 25.9115 44.25 26.5625 44.25H35.9375C36.5885 44.25 37.1989 44.1279 37.7686 43.8838C38.3382 43.6396 38.8346 43.306 39.2578 42.8828C39.681 42.4596 40.0146 41.9632 40.2588 41.3936C40.5029 40.8239 40.625 40.2135 40.625 39.5625ZM46.875 33.3125V23.9375C46.875 23.5143 46.7204 23.1481 46.4111 22.8389C46.1019 22.5296 45.7357 22.375 45.3125 22.375H43.75V34.875H45.3125C45.7357 34.875 46.1019 34.7204 46.4111 34.4111C46.7204 34.1019 46.875 33.7357 46.875 33.3125Z" fill="#E71D36"/>
</svg>
