<svg width="101" height="101" viewBox="0 0 101 101" fill="none" xmlns="http://www.w3.org/2000/svg">
<path d="M38.8555 3.68164L41.2028 45.6107L27.6516 3.86269H23.8137L37.5871 46.2943C34.2356 42.7357 30.8617 37.5561 27.3834 30.6213C31.0678 42.742 34.3313 57.7828 35.3037 68.1291L4.28518 12.6861V20.1621L32.584 70.7441C26.0424 66.5809 19.3301 59.7334 13.4594 52.6055C18.6766 62.9043 24.2524 73.0834 27.7321 83.9609L4.28479 57.0338V62.5924L25.378 86.8162C19.836 85.4004 14.294 82.9316 8.75198 80.2197C16.1797 85.4164 20.8684 90.1605 25.2039 96.9814H45.586L44.2608 79.192H39.127C39.127 70.4332 39.6875 57.9561 47.0893 56.5631C45.7235 54.916 44.8367 52.6041 44.8367 50.0156C44.8367 45.3418 47.6157 41.4691 51.1746 41.0064H51.1756C51.2348 40.999 51.2947 40.9955 51.3559 40.9941C51.5383 40.9902 51.726 41.0064 51.9086 41.0064C55.8065 41.0064 58.9799 45.0303 58.9799 50.0158C58.9799 52.5408 58.1393 54.8195 56.8323 56.4592C64.9182 57.7131 64.7416 70.4092 64.7416 79.1924H59.8705L58.6981 96.9818H76.4637C80.2563 90.9721 88.3512 85.9023 95.316 82.2877C87.7799 84.3717 80.4866 85.7256 73.8981 86.3932L96.9391 69.4068V64.8721L72.3727 82.983C77.1383 73.3418 83.291 65.7809 89.9828 59.0283C82.061 64.3648 75.6762 66.3916 69.0791 67.5801L96.9395 31.4961V25.5234L66.769 64.5996C67.0014 54.5918 70.0787 42.2506 74.4166 31.192C71.0215 36.0853 67.8002 40.1906 64.7071 43.4463L75.7239 3.86269H71.9352L61.5032 41.3443L62.2516 3.68144H38.8551L38.8555 3.68164Z" fill="black"/>
</svg>
