<svg width="25" height="25" viewBox="0 0 25 25" fill="none" xmlns="http://www.w3.org/2000/svg">
<path fill-rule="evenodd" clip-rule="evenodd" d="M13.3256 16.446C13.0444 16.7269 12.6631 16.8847 12.2656 16.8847C11.8681 16.8847 11.4869 16.7269 11.2056 16.446L5.54765 10.79C5.26639 10.5086 5.10843 10.127 5.10852 9.72914C5.10861 9.33129 5.26675 8.94976 5.54815 8.6685C5.82954 8.38724 6.21114 8.22928 6.609 8.22937C7.00686 8.22946 7.38839 8.3876 7.66965 8.669L12.2656 13.265L16.8616 8.669C17.1444 8.39562 17.5233 8.24425 17.9166 8.24748C18.3099 8.25071 18.6861 8.40829 18.9644 8.68627C19.2426 8.96425 19.4006 9.3404 19.4042 9.73369C19.4078 10.127 19.2568 10.506 18.9836 10.789L13.3266 16.447L13.3256 16.446Z" fill="black"/>
</svg>
