<svg width="25" height="24" viewBox="0 0 25 24" fill="none" xmlns="http://www.w3.org/2000/svg">
<path d="M12.625 2C7.105 2 2.625 6.48 2.625 12C2.625 17.52 7.105 22 12.625 22C18.145 22 22.625 17.52 22.625 12C22.625 6.48 18.145 2 12.625 2ZM17.265 8.8C17.115 10.38 16.465 14.22 16.135 15.99C15.995 16.74 15.715 16.99 15.455 17.02C14.875 17.07 14.435 16.64 13.875 16.27C12.995 15.69 12.495 15.33 11.645 14.77C10.655 14.12 11.295 13.76 11.865 13.18C12.015 13.03 14.575 10.7 14.625 10.49C14.6319 10.4582 14.631 10.4252 14.6223 10.3938C14.6136 10.3624 14.5974 10.3337 14.575 10.31C14.515 10.26 14.435 10.28 14.365 10.29C14.275 10.31 12.875 11.24 10.145 13.08C9.745 13.35 9.385 13.49 9.065 13.48C8.705 13.47 8.025 13.28 7.515 13.11C6.885 12.91 6.395 12.8 6.435 12.45C6.455 12.27 6.705 12.09 7.175 11.9C10.095 10.63 12.035 9.79 13.005 9.39C15.785 8.23 16.355 8.03 16.735 8.03C16.815 8.03 17.005 8.05 17.125 8.15C17.225 8.23 17.255 8.34 17.265 8.42C17.255 8.48 17.275 8.66 17.265 8.8Z" fill="white"/>
</svg>
