<svg width="25" height="24" viewBox="0 0 25 24" fill="none" xmlns="http://www.w3.org/2000/svg">
<path d="M20.375 4H4.375C3.275 4 2.385 4.9 2.385 6L2.375 18C2.375 19.1 3.275 20 4.375 20H20.375C21.475 20 22.375 19.1 22.375 18V6C22.375 4.9 21.475 4 20.375 4ZM19.975 8.25L12.905 12.67C12.585 12.87 12.165 12.87 11.845 12.67L4.775 8.25C4.67473 8.19371 4.58692 8.11766 4.51689 8.02645C4.44686 7.93525 4.39606 7.83078 4.36758 7.71937C4.33909 7.60796 4.3335 7.49194 4.35116 7.37831C4.36881 7.26468 4.40934 7.15581 4.47028 7.0583C4.53123 6.96079 4.61132 6.87666 4.70573 6.811C4.80013 6.74533 4.90687 6.69951 5.0195 6.6763C5.13212 6.65309 5.24828 6.65297 5.36095 6.67595C5.47363 6.69893 5.58046 6.74453 5.675 6.81L12.375 11L19.075 6.81C19.1695 6.74453 19.2764 6.69893 19.389 6.67595C19.5017 6.65297 19.6179 6.65309 19.7305 6.6763C19.8431 6.69951 19.9499 6.74533 20.0443 6.811C20.1387 6.87666 20.2188 6.96079 20.2797 7.0583C20.3407 7.15581 20.3812 7.26468 20.3988 7.37831C20.4165 7.49194 20.4109 7.60796 20.3824 7.71937C20.3539 7.83078 20.3031 7.93525 20.2331 8.02645C20.1631 8.11766 20.0753 8.19371 19.975 8.25Z" fill="white"/>
</svg>
