<svg width="50" height="51" viewBox="0 0 50 51" fill="none" xmlns="http://www.w3.org/2000/svg">
<path d="M8.33332 44.25C7.18749 44.25 6.20693 43.8424 5.39166 43.0271C4.57638 42.2118 4.16805 41.2306 4.16666 40.0833V33.8333H45.8333V40.0833C45.8333 41.2292 45.4257 42.2104 44.6104 43.0271C43.7951 43.8437 42.8139 44.2514 41.6667 44.25H8.33332ZM8.33332 38V40.0833H41.6667V38H8.33332ZM25 28.625C23.75 28.625 22.7604 28.9722 22.0312 29.6667C21.3021 30.3611 19.9653 30.7083 18.0208 30.7083C16.0764 30.7083 14.7569 30.3611 14.0625 29.6667C13.368 28.9722 12.3958 28.625 11.1458 28.625C9.89582 28.625 8.90624 28.9722 8.17707 29.6667C7.44791 30.3611 6.1111 30.7083 4.16666 30.7083V26.5417C5.41666 26.5417 6.40624 26.1944 7.13541 25.5C7.86457 24.8056 9.20138 24.4583 11.1458 24.4583C13.0903 24.4583 14.4097 24.8056 15.1042 25.5C15.7986 26.1944 16.7708 26.5417 18.0208 26.5417C19.2708 26.5417 20.2604 26.1944 20.9896 25.5C21.7187 24.8056 23.0555 24.4583 25 24.4583C26.9444 24.4583 28.2812 24.8056 29.0104 25.5C29.7396 26.1944 30.7292 26.5417 31.9792 26.5417C33.2292 26.5417 34.2014 26.1944 34.8958 25.5C35.5903 24.8056 36.9097 24.4583 38.8542 24.4583C40.7986 24.4583 42.1701 24.8056 42.9687 25.5C43.7674 26.1944 44.7222 26.5417 45.8333 26.5417V30.7083C43.8889 30.7083 42.5868 30.3611 41.9271 29.6667C41.2674 28.9722 40.3125 28.625 39.0625 28.625C37.8125 28.625 36.8055 28.9722 36.0417 29.6667C35.2778 30.3611 33.9236 30.7083 31.9792 30.7083C30.0347 30.7083 28.6979 30.3611 27.9687 29.6667C27.2396 28.9722 26.25 28.625 25 28.625ZM4.16666 21.3333V19.25C4.16666 15.2569 6.05068 12.1757 9.81874 10.0063C13.5868 7.83681 18.6472 6.75139 25 6.75C31.3542 6.75 36.4153 7.83542 40.1833 10.0063C43.9514 12.1771 45.8347 15.2583 45.8333 19.25V21.3333H4.16666ZM25 10.9167C20.6944 10.9167 17.0924 11.4549 14.1937 12.5312C11.2951 13.6076 9.44582 15.1528 8.64582 17.1667H41.3542C40.5555 15.1528 38.7069 13.6076 35.8083 12.5312C32.9097 11.4549 29.3069 10.9167 25 10.9167Z" fill="#E71D36"/>
</svg>
