<svg width="50" height="51" viewBox="0 0 50 51" fill="none" xmlns="http://www.w3.org/2000/svg">
<path d="M11.3333 17.0833L12.4167 15.9792C13.625 14.7708 15.625 14.7708 16.875 16.0625L16.9167 16.125C17.9375 17.1667 19.2917 17.6667 20.7708 17.8125C22.7917 18 24.75 19.0833 26.0417 21.0417C27.4583 23.2917 27.4375 26.2917 25.9583 28.5208C25.4004 29.4031 24.6502 30.1477 23.7637 30.699C22.8773 31.2502 21.8777 31.5938 20.8397 31.704C19.8016 31.8142 18.7521 31.6882 17.7697 31.3354C16.7873 30.9826 15.8974 30.4121 15.1667 29.6667C14 28.5208 13.3333 27.0417 13.1667 25.5C13 23.9792 12.3958 22.5417 11.3333 21.4792C10.125 20.2917 10.125 18.2917 11.3333 17.0833ZM20.0833 33.8333C17.6458 33.8333 15.375 32.8958 13.6875 31.1667C12.2292 29.6667 11.3125 27.7917 11.0833 25.75C11.0208 25.125 10.8333 24.3125 10.3333 23.5625C9.08333 25.2917 8.33333 27.375 8.33333 29.6667C8.33333 33.0833 10 36.1042 12.5625 38H39.5833V35.9167C39.5833 28.4167 34.6042 22.0625 27.7917 19.9792C29.6458 22.8958 29.6042 26.7917 27.7083 29.6667C26.0417 32.2708 23.1667 33.8333 20.0833 33.8333ZM30.7917 16.25H33.4375C35.25 16.25 36.8333 17.5208 36.8333 19.7917V21.3333H39.4375V19.25C39.4375 16.125 36.6667 13.75 33.4375 13.75H30.7917C29.0625 13.75 27.5833 12.0417 27.5833 10.2917C27.5833 8.54166 29.0625 7.24999 30.7917 7.24999V4.66666C27.5833 4.66666 25 7.24999 25 10.4583C25 13.6667 27.5833 16.25 30.7917 16.25ZM9.375 16.2292C9.5 16.0208 9.66667 15.8125 9.85417 15.6042L10.9375 14.5208C11.125 14.3333 11.3333 14.1875 11.5417 14.0417L8.60417 11.0625C8.89583 10.5 8.79167 9.77082 8.33333 9.29166C8.035 9.00125 7.63509 8.83875 7.21875 8.83875C6.80241 8.83875 6.4025 9.00125 6.10417 9.29166C5.8125 9.58332 5.66667 9.93749 5.64583 10.3125C5.27083 10.3333 4.91667 10.4792 4.625 10.7708C4.02083 11.375 4.02083 12.375 4.625 13C5.10417 13.4583 5.8125 13.5625 6.39583 13.2708L9.375 16.2292ZM38.3125 9.64582C39.375 8.58332 40.0417 7.14582 40.0417 5.54166H37.4375C37.4375 7.27082 35.9792 8.72916 34.25 8.72916V11.3125C38.125 11.3125 41.1667 14.4792 41.1667 18.3542V23.4167H43.75V18.3542C43.7604 16.5369 43.255 14.7539 42.2925 13.2125C41.33 11.671 39.9499 10.4342 38.3125 9.64582ZM10.4167 44.25H39.5833C41.8958 44.25 43.75 42.3958 43.75 40.0833H6.25C6.25 41.1884 6.68899 42.2482 7.47039 43.0296C8.25179 43.811 9.3116 44.25 10.4167 44.25Z" fill="#E71D36"/>
</svg>
