<svg width="25" height="24" viewBox="0 0 25 24" fill="none" xmlns="http://www.w3.org/2000/svg">
<path d="M19.625 3C20.1554 3 20.6641 3.21071 21.0392 3.58579C21.4143 3.96086 21.625 4.46957 21.625 5V19C21.625 19.5304 21.4143 20.0391 21.0392 20.4142C20.6641 20.7893 20.1554 21 19.625 21H5.625C5.09457 21 4.58586 20.7893 4.21079 20.4142C3.83571 20.0391 3.625 19.5304 3.625 19V5C3.625 4.46957 3.83571 3.96086 4.21079 3.58579C4.58586 3.21071 5.09457 3 5.625 3H19.625ZM19.125 18.5V13.2C19.125 12.3354 18.7815 11.5062 18.1702 10.8948C17.5588 10.2835 16.7296 9.94 15.865 9.94C15.015 9.94 14.025 10.46 13.545 11.24V10.13H10.755V18.5H13.545V13.57C13.545 12.8 14.165 12.17 14.935 12.17C15.3063 12.17 15.6624 12.3175 15.9249 12.5801C16.1875 12.8426 16.335 13.1987 16.335 13.57V18.5H19.125ZM7.505 8.56C7.95056 8.56 8.37788 8.383 8.69294 8.06794C9.008 7.75288 9.185 7.32556 9.185 6.88C9.185 5.95 8.435 5.19 7.505 5.19C7.05678 5.19 6.62693 5.36805 6.30999 5.68499C5.99305 6.00193 5.815 6.43178 5.815 6.88C5.815 7.81 6.575 8.56 7.505 8.56ZM8.895 18.5V10.13H6.125V18.5H8.895Z" fill="white"/>
</svg>
