<svg width="25" height="24" viewBox="0 0 25 24" fill="none" xmlns="http://www.w3.org/2000/svg">
<path d="M13.653 2C14.778 2.003 15.349 2.009 15.842 2.023L16.036 2.03C16.26 2.038 16.481 2.048 16.748 2.06C17.812 2.11 18.538 2.278 19.175 2.525C19.835 2.779 20.391 3.123 20.947 3.678C21.4555 4.1779 21.849 4.78259 22.1 5.45C22.347 6.087 22.515 6.813 22.565 7.878C22.577 8.144 22.587 8.365 22.595 8.59L22.601 8.784C22.616 9.276 22.622 9.847 22.624 10.972L22.625 11.718V13.028C22.6275 13.7574 22.6198 14.4868 22.602 15.216L22.596 15.41C22.588 15.635 22.578 15.856 22.566 16.122C22.516 17.187 22.346 17.912 22.1 18.55C21.8497 19.2178 21.4561 19.8226 20.947 20.322C20.447 20.8303 19.8423 21.2238 19.175 21.475C18.538 21.722 17.812 21.89 16.748 21.94C16.5107 21.9512 16.2734 21.9612 16.036 21.97L15.842 21.976C15.349 21.99 14.778 21.997 13.653 21.999L12.907 22H11.598C10.8683 22.0025 10.1386 21.9948 9.40903 21.977L9.21503 21.971C8.97764 21.962 8.7403 21.9517 8.50303 21.94C7.43903 21.89 6.71303 21.722 6.07503 21.475C5.4077 21.2244 4.80324 20.8308 4.30403 20.322C3.79507 19.8223 3.40125 19.2176 3.15003 18.55C2.90303 17.913 2.73503 17.187 2.68503 16.122C2.67389 15.8847 2.66389 15.6474 2.65503 15.41L2.65003 15.216C2.6316 14.4868 2.62327 13.7574 2.62503 13.028V10.972C2.62224 10.2426 2.62957 9.5132 2.64703 8.784L2.65403 8.59C2.66203 8.365 2.67203 8.144 2.68403 7.878C2.73403 6.813 2.90203 6.088 3.14903 5.45C3.40014 4.7819 3.79475 4.17702 4.30503 3.678C4.80412 3.16947 5.40817 2.77599 6.07503 2.525C6.71303 2.278 7.43803 2.11 8.50303 2.06C8.76903 2.048 8.99103 2.038 9.21503 2.03L9.40903 2.024C10.1382 2.00623 10.8676 1.99857 11.597 2.001L13.653 2ZM12.625 7C11.2989 7 10.0272 7.52678 9.08949 8.46447C8.15181 9.40215 7.62503 10.6739 7.62503 12C7.62503 13.3261 8.15181 14.5979 9.08949 15.5355C10.0272 16.4732 11.2989 17 12.625 17C13.9511 17 15.2229 16.4732 16.1606 15.5355C17.0982 14.5979 17.625 13.3261 17.625 12C17.625 10.6739 17.0982 9.40215 16.1606 8.46447C15.2229 7.52678 13.9511 7 12.625 7ZM12.625 9C13.019 8.99993 13.4091 9.07747 13.7731 9.22817C14.1371 9.37887 14.4679 9.5998 14.7465 9.87833C15.0251 10.1569 15.2461 10.4875 15.397 10.8515C15.5478 11.2154 15.6255 11.6055 15.6255 11.9995C15.6256 12.3935 15.5481 12.7836 15.3974 13.1476C15.2467 13.5116 15.0257 13.8423 14.7472 14.121C14.4687 14.3996 14.138 14.6206 13.774 14.7714C13.4101 14.9223 13.02 14.9999 12.626 15C11.8304 15 11.0673 14.6839 10.5047 14.1213C9.9421 13.5587 9.62603 12.7956 9.62603 12C9.62603 11.2044 9.9421 10.4413 10.5047 9.87868C11.0673 9.31607 11.8304 9 12.626 9M17.876 5.5C17.5445 5.5 17.2266 5.6317 16.9921 5.86612C16.7577 6.10054 16.626 6.41848 16.626 6.75C16.626 7.08152 16.7577 7.39946 16.9921 7.63388C17.2266 7.8683 17.5445 8 17.876 8C18.2075 8 18.5255 7.8683 18.7599 7.63388C18.9943 7.39946 19.126 7.08152 19.126 6.75C19.126 6.41848 18.9943 6.10054 18.7599 5.86612C18.5255 5.6317 18.2075 5.5 17.876 5.5Z" fill="white"/>
</svg>
