<svg width="101" height="100" viewBox="0 0 101 100" fill="none" xmlns="http://www.w3.org/2000/svg">
<g clip-path="url(#clip0_1_89)">
<path d="M50.5 100C78.1142 100 100.5 87.5635 100.5 72.2222C100.5 56.881 78.1142 44.4444 50.5 44.4444C22.8858 44.4444 0.5 56.881 0.5 72.2222C0.5 87.5635 22.8858 100 50.5 100Z" fill="#8899A6"/>
<path d="M50.5 95.1389C78.1142 95.1389 100.5 82.7024 100.5 67.3611C100.5 52.0199 78.1142 39.5833 50.5 39.5833C22.8858 39.5833 0.5 52.0199 0.5 67.3611C0.5 82.7024 22.8858 95.1389 50.5 95.1389Z" fill="#CCD6DD"/>
<path d="M91.2639 65.7917C91.2639 77.625 73.0139 87.2139 50.5 87.2139C27.9861 87.2139 9.73611 77.625 9.73611 65.7917C9.73611 53.9639 27.9861 44.3722 50.5 44.3722C73.0111 44.3722 91.2639 53.9639 91.2639 65.7917Z" fill="#DD2E44"/>
<path d="M90.0361 62.6194C90.0361 89.9917 10.9639 89.9917 10.9639 62.6194V38.2889H90.0361V62.6194Z" fill="#F4ABBA"/>
<path d="M50.4555 50.4611C25.5 50.4611 10.9611 38.9833 10.9611 38.9833C10.9611 38.9833 10.9167 41.55 10.9167 43.6639C10.9167 43.6639 11.0055 57.2694 18.0611 57.2694C24.8917 57.2694 24.3944 63.7917 28.7111 64.4667C32.9917 65.1361 33.4667 61.8611 38.7805 61.8611C44.0944 61.8611 45.0305 67.7111 50.4555 67.7111C56.8139 67.7111 57.3361 61.8611 62.6472 61.8611C67.9583 61.8611 68.5694 65.2611 72.0528 64.3195C76.2389 63.1861 74.3139 57.2722 82.85 57.2722C89.9055 57.2722 90.0806 44.3611 90.0806 44.3611C90.0806 42.25 90.0333 38.9861 90.0333 38.9861C90.0333 38.9861 75.4139 50.4611 50.4555 50.4611Z" fill="#DD2E44"/>
<path d="M91.2639 35.3806C91.2639 47.2111 73.0139 56.8028 50.5 56.8028C27.9861 56.8028 9.73611 47.2111 9.73611 35.3806C9.73611 23.55 27.9861 13.9583 50.5 13.9583C73.0111 13.9583 91.2639 23.55 91.2639 35.3806Z" fill="#EA596E"/>
<path d="M71.7889 38.2889C70.1083 38.2889 68.7472 36.9278 68.7472 35.2472V13.9583C68.7472 13.1516 69.0677 12.378 69.6381 11.8075C70.2085 11.2371 70.9822 10.9167 71.7889 10.9167C72.5956 10.9167 73.3692 11.2371 73.9397 11.8075C74.5101 12.378 74.8306 13.1516 74.8306 13.9583V35.2472C74.8306 36.9278 73.4694 38.2889 71.7889 38.2889Z" fill="#FFF8E8"/>
<path d="M71.7889 18.5194C68.5611 18.5194 66.0222 17.0417 64.9972 14.5667C64.1083 12.4194 63.6667 7.76111 70.7139 0.716668C70.855 0.575397 71.0226 0.463326 71.207 0.386863C71.3915 0.310399 71.5892 0.271042 71.7889 0.271042C71.9886 0.271042 72.1863 0.310399 72.3708 0.386863C72.5552 0.463326 72.7228 0.575397 72.8639 0.716668C79.9111 7.76389 79.4695 12.4194 78.5806 14.5667C77.5556 17.0417 75.0167 18.5194 71.7889 18.5194Z" fill="#FAAA35"/>
<path d="M50.5 47.4111C48.8195 47.4111 47.4583 46.05 47.4583 44.3694V23.0833C47.4583 22.6839 47.537 22.2884 47.6899 21.9193C47.8427 21.5503 48.0668 21.215 48.3492 20.9325C48.6317 20.6501 48.967 20.4261 49.336 20.2732C49.705 20.1203 50.1006 20.0417 50.5 20.0417C50.8994 20.0417 51.295 20.1203 51.664 20.2732C52.033 20.4261 52.3683 20.6501 52.6508 20.9325C52.9332 21.215 53.1573 21.5503 53.3101 21.9193C53.463 22.2884 53.5417 22.6839 53.5417 23.0833V44.3722C53.5417 46.05 52.1806 47.4111 50.5 47.4111Z" fill="#FFF8E8"/>
<path d="M50.5 27.6444C47.2722 27.6444 44.7333 26.1667 43.7083 23.6917C42.8167 21.5444 42.3778 16.8861 49.425 9.84167C49.5661 9.7004 49.7337 9.58833 49.9181 9.51186C50.1026 9.4354 50.3003 9.39604 50.5 9.39604C50.6997 9.39604 50.8974 9.4354 51.0818 9.51186C51.2663 9.58833 51.4339 9.7004 51.575 9.84167C58.6222 16.8889 58.1805 21.5444 57.2917 23.6917C56.2667 26.1667 53.7278 27.6444 50.5 27.6444Z" fill="#FAAA35"/>
<path d="M29.2111 38.2889C27.5305 38.2889 26.1694 36.9278 26.1694 35.2472V13.9583C26.1694 13.5589 26.2481 13.1634 26.401 12.7943C26.5538 12.4253 26.7779 12.09 27.0603 11.8075C27.3428 11.5251 27.6781 11.3011 28.0471 11.1482C28.4161 10.9953 28.8117 10.9167 29.2111 10.9167C29.6105 10.9167 30.0061 10.9953 30.3751 11.1482C30.7441 11.3011 31.0794 11.5251 31.3619 11.8075C31.6443 12.09 31.8684 12.4253 32.0212 12.7943C32.1741 13.1634 32.2528 13.5589 32.2528 13.9583V35.2472C32.2528 36.9278 30.8917 38.2889 29.2111 38.2889Z" fill="#FFF8E8"/>
<path d="M29.2111 18.5194C25.9833 18.5194 23.4444 17.0417 22.4194 14.5667C21.5278 12.4194 21.0889 7.76111 28.1361 0.716668C28.2772 0.575397 28.4448 0.463326 28.6293 0.386863C28.8137 0.310399 29.0114 0.271042 29.2111 0.271042C29.4108 0.271042 29.6085 0.310399 29.793 0.386863C29.9774 0.463326 30.145 0.575397 30.2861 0.716668C37.3333 7.76389 36.8917 12.4194 36.0028 14.5667C34.9778 17.0417 32.4389 18.5194 29.2111 18.5194Z" fill="#FAAA35"/>
</g>
<defs>
<clipPath id="clip0_1_89">
<rect width="100" height="100" fill="white" transform="translate(0.5)"/>
</clipPath>
</defs>
</svg>
