<svg width="25" height="24" viewBox="0 0 25 24" fill="none" xmlns="http://www.w3.org/2000/svg">
<path d="M10.525 0H9.175L8.275 3.45L7.375 0H5.875C6.175 0.9 6.475 1.65 6.775 2.55C7.225 3.75 7.525 4.8 7.525 5.4V9H8.875V5.4L10.525 0ZM14.125 6.75V4.5C14.125 3.75 13.975 3.3 13.675 2.85C13.375 2.4 12.925 2.25 12.325 2.25C11.725 2.25 11.275 2.55 10.975 3C10.675 3.3 10.525 3.75 10.525 4.5V6.9C10.525 7.65 10.675 8.1 10.975 8.4C11.275 8.85 11.725 9 12.325 9C12.925 9 13.375 8.7 13.675 8.25C13.975 8.1 14.125 7.5 14.125 6.75ZM12.925 7.05C12.925 7.65 12.775 7.95 12.325 7.95C11.875 7.95 11.725 7.65 11.725 7.05V4.2C11.725 3.6 11.875 3.3 12.325 3.3C12.775 3.3 12.925 3.6 12.925 4.2V7.05ZM18.625 9V2.25H17.425V7.35C17.125 7.8 16.975 7.95 16.675 7.95C16.525 7.95 16.375 7.8 16.375 7.65V2.25H15.175V7.5C15.175 7.95 15.175 8.25 15.325 8.55C15.325 8.85 15.625 9 16.075 9C16.525 9 16.975 8.7 17.425 8.25V9H18.625ZM19.225 15.75C18.775 15.75 18.625 16.05 18.625 16.65V17.25H19.825V16.65C19.825 16.05 19.675 15.75 19.225 15.75ZM14.875 15.75C14.725 15.75 14.425 15.9 14.275 16.05V20.1C14.425 20.25 14.725 20.4 14.875 20.4C15.175 20.4 15.325 20.1 15.325 19.5V16.65C15.325 16.05 15.175 15.75 14.875 15.75Z" fill="white"/>
<path d="M22.225 12.45C21.925 11.4 21.025 10.5 20.125 10.5C17.725 10.2 15.175 10.2 12.625 10.2C10.075 10.2 7.67498 10.2 5.12498 10.5C4.22498 10.5 3.32498 11.4 3.02498 12.45C2.72498 13.95 2.72498 15.6 2.72498 17.1C2.72498 18.6 2.72498 20.25 3.02498 21.75C3.32498 22.8 4.07498 23.55 5.12498 23.7C7.67498 24 10.075 24 12.625 24C15.175 24 17.575 24 20.125 23.7C21.175 23.55 22.075 22.8 22.225 21.75C22.525 20.25 22.525 18.6 22.525 17.1C22.525 15.6 22.525 13.95 22.225 12.45ZM8.42498 13.8H6.92498V21.45H5.57498V13.8H4.22498V12.45H8.42498V13.8ZM12.025 21.45H10.825V20.7C10.375 21.3 9.92498 21.45 9.47498 21.45C9.02498 21.45 8.87498 21.3 8.72498 21C8.72498 20.85 8.57498 20.55 8.57498 19.95V14.7H9.77498V19.95C9.77498 20.1 9.92498 20.25 10.075 20.25C10.375 20.25 10.525 20.1 10.825 19.65V14.7H12.025V21.45ZM16.525 19.35C16.525 19.95 16.525 20.4 16.375 20.7C16.225 21.15 15.925 21.45 15.475 21.45C15.025 21.45 14.575 21.15 14.275 20.7V21.3H13.075V12.45H14.275V15.3C14.725 14.85 15.025 14.55 15.475 14.55C15.925 14.55 16.225 14.85 16.375 15.3C16.525 15.6 16.525 16.05 16.525 16.65V19.35ZM21.025 18.3H18.625V19.5C18.625 20.1 18.775 20.4 19.225 20.4C19.525 20.4 19.675 20.25 19.825 19.95V19.2H21.025V20.1C21.025 20.4 20.875 20.55 20.725 20.85C20.425 21.3 19.975 21.6 19.225 21.6C18.625 21.6 18.175 21.3 17.725 20.85C17.425 20.55 17.275 19.95 17.275 19.35V17.1C17.275 16.35 17.425 15.9 17.575 15.6C17.875 15.15 18.325 14.85 19.075 14.85C19.675 14.85 20.125 15.15 20.425 15.6C20.725 15.9 20.725 16.5 20.725 17.1V18.3H21.025Z" fill="white"/>
</svg>
