<svg width="101" height="100" viewBox="0 0 101 100" fill="none" xmlns="http://www.w3.org/2000/svg">
<g clip-path="url(#clip0_1_81)">
<path d="M42.2077 0.361542C36.0038 0.361542 31.6308 4.75385 31.6308 10.9385C31.6308 17.7462 37.0077 22.1731 42.2077 26.4423C43.9077 27.8385 45.5692 29.2423 47.1346 30.7692H19.7308C14.6692 30.7692 10.4654 34.0423 8.91154 38.5808C8.91154 38.5808 9.69615 46.1538 21.6538 46.1538C32.7692 46.1538 33.1808 40.5 33.1923 40.2654C33.2181 39.7746 33.4326 39.3129 33.791 38.9767C34.1495 38.6405 34.624 38.4559 35.1154 38.4615C35.6202 38.4779 36.0999 38.6857 36.4571 39.0429C36.8143 39.4001 37.0221 39.8798 37.0385 40.3846C37.0538 40.5808 37.5962 46.1538 50.5 46.1538C63.4038 46.1538 63.9423 40.5 63.9615 40.2654C64.0038 39.7594 64.2398 39.2893 64.6203 38.9532C65.0009 38.6171 65.4965 38.4409 66.0038 38.4615C66.4963 38.4826 66.9609 38.6956 67.2981 39.0551C67.6352 39.4146 67.8182 39.8919 67.8077 40.3846C67.8154 40.5885 68.1538 46.1538 79.3462 46.1538C91.6654 46.1538 92.0885 38.5808 92.0885 38.5808C90.5346 34.0462 86.3231 30.7692 81.2692 30.7692H53.8654C55.4444 29.2564 57.0882 27.8127 58.7923 26.4423C63.9885 22.1731 69.3692 17.7423 69.3692 10.9385C69.3692 4.75385 65 0.361542 58.7923 0.361542C55.2154 0.361542 52.1885 2.92308 50.5 4.68846C48.8192 2.91923 45.7808 0.361542 42.2077 0.361542ZM35.2308 45.0731C33.3538 47.5192 29.5077 50 21.6538 50C13.9423 50 10.1115 47.5962 8.19231 45.1923V61.5385H92.8077V45.1923C90.8885 47.5769 87.0462 50 79.3462 50C71.4615 50 67.6385 47.5115 65.7654 45.0731C63.6346 47.5077 59.2885 50 50.5 50C41.6808 50 37.3538 47.5192 35.2346 45.0731H35.2308ZM12.0385 65.3846C6.97692 65.3846 2.77308 68.6577 1.21923 73.1962C1.22308 73.1962 2.00385 80.7692 13.9615 80.7692C25.0769 80.7692 29.3346 75.1154 29.3462 74.8808C29.3719 74.39 29.5865 73.9283 29.9449 73.5921C30.3033 73.2559 30.7778 73.0713 31.2692 73.0769C31.7741 73.0933 32.2538 73.3011 32.6109 73.6583C32.9681 74.0155 33.176 74.4952 33.1923 75C33.2077 75.1962 37.5962 80.7692 50.5 80.7692C63.4038 80.7692 67.7885 75.1154 67.8077 74.8808C67.8499 74.3748 68.0859 73.9047 68.4665 73.5686C68.847 73.2325 69.3427 73.0563 69.85 73.0769C70.3424 73.0979 70.807 73.311 71.1442 73.6705C71.4814 74.03 71.6644 74.5072 71.6538 75C71.6615 75.2038 75.8462 80.7692 87.0385 80.7692C99.3577 80.7692 99.7808 73.1962 99.7808 73.1962C98.2269 68.6615 94.0154 65.3846 88.9615 65.3846H12.0385ZM31.3885 79.6885C29.5077 82.1346 21.8154 84.6154 13.9615 84.6154C6.25 84.6154 2.41923 82.2115 0.5 79.8077V92.3077C0.5 98.6769 5.66923 100 12.0385 100H88.9615C95.3308 100 100.5 98.6769 100.5 92.3077V79.8077C98.5808 82.1923 94.7385 84.6154 87.0385 84.6154C79.1538 84.6154 71.4846 82.1269 69.6115 79.6885C67.4808 82.1231 59.2885 84.6154 50.5 84.6154C41.6808 84.6154 33.5077 82.1346 31.3885 79.6885Z" fill="#E71D36"/>
</g>
<defs>
<clipPath id="clip0_1_81">
<rect width="100" height="100" fill="white" transform="translate(0.5)"/>
</clipPath>
</defs>
</svg>
