<svg width="32" height="32" viewBox="0 0 32 32" fill="none" xmlns="http://www.w3.org/2000/svg">
<path d="M15.9332 23.9998C16.3998 23.9998 16.7945 23.8385 17.1172 23.5158C17.4398 23.1932 17.6007 22.7989 17.5998 22.3332C17.5998 21.8665 17.4389 21.4718 17.1172 21.1492C16.7954 20.8265 16.4007 20.6656 15.9332 20.6665C15.4665 20.6665 15.0723 20.8278 14.7505 21.1505C14.4287 21.4732 14.2674 21.8674 14.2665 22.3332C14.2665 22.7998 14.4278 23.1945 14.7505 23.5172C15.0732 23.8398 15.4674 24.0007 15.9332 23.9998ZM14.7332 18.8665H17.1998C17.1998 18.1332 17.2834 17.5554 17.4505 17.1332C17.6176 16.7109 18.0896 16.1332 18.8665 15.3998C19.4443 14.8221 19.8998 14.2718 20.2332 13.7492C20.5665 13.2265 20.7332 12.5989 20.7332 11.8665C20.7332 10.6221 20.2776 9.6665 19.3665 8.99984C18.4554 8.33317 17.3776 7.99984 16.1332 7.99984C14.8665 7.99984 13.8389 8.33317 13.0505 8.99984C12.2621 9.6665 11.7118 10.4665 11.3998 11.3998L13.5998 12.2665C13.7109 11.8665 13.9612 11.4332 14.3505 10.9665C14.7398 10.4998 15.3341 10.2665 16.1332 10.2665C16.8443 10.2665 17.3776 10.4612 17.7332 10.8505C18.0887 11.2398 18.2665 11.6674 18.2665 12.1332C18.2665 12.5776 18.1332 12.9945 17.8665 13.3838C17.5998 13.7732 17.2665 14.1341 16.8665 14.4665C15.8887 15.3332 15.2887 15.9887 15.0665 16.4332C14.8443 16.8776 14.7332 17.6887 14.7332 18.8665ZM15.9998 29.3332C14.1554 29.3332 12.4221 28.9834 10.7998 28.2838C9.17762 27.5843 7.7665 26.6341 6.5665 25.4332C5.3665 24.2332 4.41673 22.8221 3.71717 21.1998C3.01762 19.5776 2.66739 17.8443 2.6665 15.9998C2.6665 14.1554 3.01673 12.4221 3.71717 10.7998C4.41762 9.17762 5.36739 7.7665 6.5665 6.5665C7.7665 5.3665 9.17762 4.41673 10.7998 3.71717C12.4221 3.01762 14.1554 2.66739 15.9998 2.6665C17.8443 2.6665 19.5776 3.01673 21.1998 3.71717C22.8221 4.41762 24.2332 5.36739 25.4332 6.5665C26.6332 7.7665 27.5834 9.17762 28.2838 10.7998C28.9843 12.4221 29.3341 14.1554 29.3332 15.9998C29.3332 17.8443 28.9829 19.5776 28.2825 21.1998C27.5821 22.8221 26.6323 24.2332 25.4332 25.4332C24.2332 26.6332 22.8221 27.5834 21.1998 28.2838C19.5776 28.9843 17.8443 29.3341 15.9998 29.3332ZM15.9998 26.6665C18.9776 26.6665 21.4998 25.6332 23.5665 23.5665C25.6332 21.4998 26.6665 18.9776 26.6665 15.9998C26.6665 13.0221 25.6332 10.4998 23.5665 8.43317C21.4998 6.3665 18.9776 5.33317 15.9998 5.33317C13.0221 5.33317 10.4998 6.3665 8.43317 8.43317C6.3665 10.4998 5.33317 13.0221 5.33317 15.9998C5.33317 18.9776 6.3665 21.4998 8.43317 23.5665C10.4998 25.6332 13.0221 26.6665 15.9998 26.6665Z" fill="#17A1FA"/>
</svg>
