<svg width="30" height="29" viewBox="0 0 30 29" fill="none" xmlns="http://www.w3.org/2000/svg">
  <path d="M24.1833 25.375L16.5708 17.7625C15.9667 18.2458 15.2719 18.6285 14.4865 18.9104C13.701 19.1924 12.8653 19.3333 11.9792 19.3333C9.78403 19.3333 7.92642 18.5729 6.40633 17.052C4.88625 15.5311 4.12581 13.6735 4.125 11.4792C4.125 9.28403 4.88544 7.42642 6.40633 5.90633C7.92722 4.38625 9.78483 3.62581 11.9792 3.625C14.1743 3.625 16.0323 4.38544 17.5532 5.90633C19.0741 7.42722 19.8341 9.28483 19.8333 11.4792C19.8333 12.3653 19.6924 13.201 19.4104 13.9865C19.1285 14.7719 18.7458 15.4667 18.2625 16.0708L25.875 23.6833L24.1833 25.375ZM11.9792 16.9167C13.4896 16.9167 14.7736 16.3882 15.8313 15.3313C16.889 14.2744 17.4175 12.9904 17.4167 11.4792C17.4167 9.96875 16.8882 8.6851 15.8313 7.62821C14.7744 6.57132 13.4904 6.04247 11.9792 6.04167C10.4688 6.04167 9.1851 6.57051 8.12821 7.62821C7.07132 8.6859 6.54247 9.96956 6.54167 11.4792C6.54167 12.9896 7.07051 14.2736 8.12821 15.3313C9.1859 16.389 10.4696 16.9175 11.9792 16.9167Z" fill="#2D3142"/>
</svg>
