<svg width="32" height="32" viewBox="0 0 32 32" fill="none" xmlns="http://www.w3.org/2000/svg">
<path fill-rule="evenodd" clip-rule="evenodd" d="M19.9998 25.3332C20 26.0059 19.7459 26.6539 19.2885 27.1472C18.831 27.6405 18.204 27.9427 17.5331 27.9932L17.3331 27.9998H14.6665C13.9937 28.0001 13.3457 27.746 12.8524 27.2885C12.3591 26.8311 12.0569 26.204 12.0065 25.5332L11.9998 25.3332H19.9998ZM15.9998 2.6665C18.4198 2.66646 20.7452 3.60636 22.4854 5.28794C24.2257 6.96951 25.2448 9.26129 25.3278 11.6798L25.3331 11.9998V17.0185L27.7625 21.8772C27.8685 22.0892 27.9215 22.3237 27.9171 22.5607C27.9127 22.7977 27.8508 23.0301 27.7369 23.2379C27.623 23.4458 27.4605 23.623 27.2631 23.7543C27.0658 23.8856 26.8395 23.9671 26.6038 23.9918L26.4505 23.9998H5.54913C5.31202 23.9999 5.07842 23.9425 4.86836 23.8325C4.6583 23.7225 4.47804 23.5632 4.34302 23.3683C4.208 23.1734 4.12226 22.9486 4.09314 22.7133C4.06401 22.478 4.09238 22.2391 4.1758 22.0172L4.23713 21.8772L6.66646 17.0185V11.9998C6.66646 9.52448 7.6498 7.15051 9.40014 5.40017C11.1505 3.64983 13.5244 2.6665 15.9998 2.6665ZM15.9998 5.33317C14.2818 5.33327 12.6302 5.99656 11.3894 7.18472C10.1486 8.37288 9.41436 9.99417 9.3398 11.7105L9.33313 11.9998V17.0185C9.33315 17.3492 9.27166 17.677 9.1518 17.9852L9.0518 18.2118L7.4918 21.3332H24.5091L22.9491 18.2105C22.8011 17.9149 22.7094 17.5943 22.6785 17.2652L22.6665 17.0185V11.9998C22.6665 10.2317 21.9641 8.53603 20.7138 7.28579C19.4636 6.03555 17.7679 5.33317 15.9998 5.33317Z" fill="#17A1FA"/>
</svg>
